<svg id="visual" viewBox="0 0 900 600" width="900" height="600" xmlns="http://www.w3.org/2000/svg" xmlns:xlink="http://www.w3.org/1999/xlink" version="1.1"><rect x="0" y="0" width="900" height="600" fill="#000f1a"></rect><defs><linearGradient id="grad1_0" x1="33.3%" y1="0%" x2="100%" y2="100%"><stop offset="20%" stop-color="#000f1a" stop-opacity="1"></stop><stop offset="80%" stop-color="#000f1a" stop-opacity="1"></stop></linearGradient></defs><defs><linearGradient id="grad2_0" x1="0%" y1="0%" x2="66.7%" y2="100%"><stop offset="20%" stop-color="#000f1a" stop-opacity="1"></stop><stop offset="80%" stop-color="#000f1a" stop-opacity="1"></stop></linearGradient></defs><g transform="translate(900, 0)"><path d="M0 486.7C-17.6 446.5 -35.2 406.3 -45.1 371.3C-55 336.3 -57.3 306.6 -82.6 335C-107.9 363.4 -156.2 449.9 -170.2 448.8C-184.2 447.7 -163.8 358.9 -182.2 347.1C-200.6 335.3 -257.8 400.5 -276.5 400.6C-295.2 400.6 -275.3 335.6 -257.3 290.4C-239.3 245.3 -223.1 220.1 -256.7 227.5C-290.4 234.8 -373.9 274.6 -384.3 265.3C-394.7 255.9 -332 197.4 -329.4 172.9C-326.8 148.4 -384.2 158 -384.3 145.7C-384.4 133.5 -327.2 99.5 -335 82.6C-342.8 65.6 -415.6 65.8 -451.7 54.8C-487.8 43.9 -487.3 22 -486.7 0L0 0Z" fill="#4e0013"></path></g><g transform="translate(0, 600)"><path d="M0 -486.7C19.5 -462.9 39 -439 48.7 -401.1C58.3 -363.1 58.1 -311.1 81.6 -331.1C105.1 -351.1 152.2 -443.1 171.6 -452.5C191 -462 182.6 -389 183.6 -349.8C184.5 -310.5 194.9 -304.9 208.5 -302C222.1 -299.1 239 -298.9 275.2 -310.6C311.4 -322.4 367 -346 364.3 -322.8C361.7 -299.5 300.8 -229.3 291.3 -201.1C281.9 -172.9 324 -186.6 357.7 -187.7C391.5 -188.9 416.9 -177.6 424.5 -161C432.1 -144.4 421.8 -122.4 422.4 -104.1C422.9 -85.8 434.2 -71 446.7 -54.2C459.2 -37.5 473 -18.7 486.7 0L0 0Z" fill="#4e0013"></path></g></svg>