<svg id="visual" viewBox="0 0 900 600" width="900" height="600" xmlns="http://www.w3.org/2000/svg" xmlns:xlink="http://www.w3.org/1999/xlink" version="1.1"><rect x="0" y="0" width="900" height="600" fill="#cfd0d0"></rect><defs><linearGradient id="grad1_0" x1="33.3%" y1="100%" x2="100%" y2="0%"><stop offset="20%" stop-color="#cfd0d0" stop-opacity="1"></stop><stop offset="80%" stop-color="#cfd0d0" stop-opacity="1"></stop></linearGradient></defs><defs><linearGradient id="grad2_0" x1="0%" y1="100%" x2="66.7%" y2="0%"><stop offset="20%" stop-color="#cfd0d0" stop-opacity="1"></stop><stop offset="80%" stop-color="#cfd0d0" stop-opacity="1"></stop></linearGradient></defs><g transform="translate(900, 600)"><path d="M-216.3 0C-201.4 -9 -186.5 -18 -186.7 -29.6C-186.9 -41.1 -202.3 -55.2 -203.5 -66.1C-204.8 -77 -192 -84.7 -180.9 -92.2C-169.8 -99.6 -160.4 -106.9 -145.6 -105.8C-130.8 -104.7 -110.5 -95.1 -109.6 -109.6C-108.7 -124.1 -127.1 -162.8 -121.1 -166.7C-115.1 -170.5 -84.6 -139.5 -73.5 -144.3C-62.5 -149.2 -70.8 -189.9 -66.9 -205.7C-62.9 -221.6 -46.5 -212.7 -33.3 -210.4C-20.1 -208 -10.1 -212.2 0 -216.3L0 0Z" fill="#700000"></path></g><g transform="translate(0, 0)"><path d="M216.3 0C213.2 11 210.1 22 204.5 32.4C198.8 42.8 190.7 52.7 175.9 57.2C161.2 61.7 140 60.8 135.4 69C130.9 77.2 143 94.4 141.6 102.9C140.1 111.3 125.1 111.1 120.2 120.2C115.3 129.4 120.7 148 119.9 165C119.1 182.1 112.3 197.7 98.2 192.8C84.1 187.8 62.9 162.3 50.4 155C37.9 147.7 34.2 158.6 27.2 171.9C20.3 185.1 10.1 200.7 0 216.3L0 0Z" fill="#700000"></path></g></svg>