<svg id="visual" viewBox="0 0 560 216" width="560" height="216" xmlns="http://www.w3.org/2000/svg" xmlns:xlink="http://www.w3.org/1999/xlink" version="1.1"><rect x="0" y="0" width="560" height="216" fill="#8f8f8f"></rect><defs><linearGradient id="grad1_0" x1="61.4%" y1="0%" x2="100%" y2="100%"><stop offset="-1.851851851851853%" stop-color="#8f8f8f" stop-opacity="1"></stop><stop offset="101.85185185185186%" stop-color="#8f8f8f" stop-opacity="1"></stop></linearGradient></defs><defs><linearGradient id="grad2_0" x1="0%" y1="0%" x2="38.6%" y2="100%"><stop offset="-1.851851851851853%" stop-color="#8f8f8f" stop-opacity="1"></stop><stop offset="101.85185185185186%" stop-color="#8f8f8f" stop-opacity="1"></stop></linearGradient></defs><g transform="translate(560, 0)"><path d="M0 216C-6.2 195.3 -12.3 174.5 -21.1 173.7C-29.9 172.9 -41.3 192.1 -45.5 184.5C-49.7 176.9 -46.6 142.6 -48.2 127.2C-49.8 111.7 -56 115.2 -58.1 110.7C-60.2 106.1 -58.1 93.5 -61.4 88.9C-64.6 84.2 -73.2 87.6 -76.3 86.1C-79.3 84.6 -76.8 78.3 -98.8 87.5C-120.8 96.8 -167.2 121.7 -172 118.7C-176.8 115.8 -139.9 85 -146.1 76.7C-152.3 68.4 -201.4 82.5 -202 76.6C-202.5 70.7 -154.3 44.8 -127.2 31.4C-100 17.9 -93.9 16.8 -112.2 13.6C-130.5 10.5 -173.2 5.2 -216 0L0 0Z" fill="#320000"></path></g><g transform="translate(0, 216)"><path d="M0 -216C2.4 -171 4.9 -126.1 16.6 -137C28.4 -147.9 49.5 -214.6 51.7 -209.7C53.9 -204.8 37.2 -128.2 46.1 -121.6C55 -114.9 89.3 -178.1 96.7 -184.2C104 -190.3 84.3 -139.2 89.2 -129.2C94.1 -119.2 123.7 -150.2 141.2 -159.4C158.8 -168.7 164.4 -156.2 156.4 -138.6C148.5 -121 127 -98.3 134.1 -92.6C141.3 -86.9 177 -98.3 174.4 -91.6C171.9 -84.8 131.1 -59.8 137.4 -52.1C143.8 -44.5 197.4 -54.2 207.8 -51.2C218.2 -48.2 185.5 -32.5 179.7 -21.8C173.9 -11.2 194.9 -5.6 216 0L0 0Z" fill="#320000"></path></g></svg>